<?xml version="1.0" encoding="UTF-8"?>
<svg width="1603px" height="1338px" viewBox="0 0 1603 1338" version="1.1" xmlns="http://www.w3.org/2000/svg" xmlns:xlink="http://www.w3.org/1999/xlink">
    <!-- Generator: Sketch 52.2 (67145) - http://www.bohemiancoding.com/sketch -->
    <title>background-wrap</title>
    <desc>Created with Sketch.</desc>
    <g id="Page-1" stroke="none" stroke-width="1" fill="none" fill-rule="evenodd">
        <g id="background-wrap" fill="#FFFFFF">
            <path d="M1601,772.10497 C1601.23527,772.57548 1601.46493,773.04692 1601.68898,773.51934 C1603.67029,777.69699 1601.75133,892.14549 1601.68898,1012.90168 C1601.60832,1169.13451 1602.89695,1339.89652 1601.68898,1337.34657 C1525.64589,1176.8237 1401.74251,1054.46339 1229.97886,970.26561 C965.077195,840.412 835.036806,882.74243 626.25188,745.0773 C417.466954,607.41218 202.090843,471.24493 123.491086,335.787 C61.8175402,229.49951 42.2810735,214.79121 8.78308516,183.0958 C5.90877107,180.37615 3.48148021,177.69866 1.47724109,175.06601 C0.358863671,173.59697 0.199783307,169.9358 1,164.0825 L1,9.09494702e-13 L1601,9.09494702e-13 L1601,772.10497 Z" id="Combined-Shape"></path>
        </g>
    </g>
</svg>