<?xml version="1.0" encoding="UTF-8"?>
<svg width="24px" height="23px" viewBox="0 0 24 23" version="1.1" xmlns="http://www.w3.org/2000/svg" xmlns:xlink="http://www.w3.org/1999/xlink">
    <!-- Generator: Sketch 52.2 (67145) - http://www.bohemiancoding.com/sketch -->
    <title>Group 5</title>
    <desc>Created with Sketch.</desc>
    <g id="design-1" stroke="none" stroke-width="1" fill="none" fill-rule="evenodd" opacity="0.797935268">
        <g id="Shop-V1-Dropd-3" transform="translate(-1476.000000, -576.000000)" fill="#262626">
            <g id="Group-5" transform="translate(1476.000000, 576.000000)">
                <path d="M9.18974359,4.82258889 C9.18974359,5.02723267 9.35601026,5.19393667 9.56233333,5.19393667 L22.9618205,5.19393667 C23.1671487,5.19393667 23.3344103,5.02822422 23.3344103,4.82258889 C23.3344103,4.61794511 23.1681436,4.45124111 22.9618205,4.45124111 L9.56130769,4.45124111 C9.35597949,4.45224033 9.18971795,4.61795022 9.18971795,4.82258889 L9.18974359,4.82258889 Z" id="Fill-1"></path>
                <path d="M9.56128205,9.64517778 L22.9607692,9.64517778 C23.1660974,9.64517778 23.333359,9.47946533 23.333359,9.27383 C23.333359,9.06918622 23.1670923,8.90248222 22.9607692,8.90248222 L9.56128205,8.90348144 C9.35595385,8.90348144 9.18869231,9.06919389 9.18869231,9.27482922 C9.18969487,9.479473 9.35595897,9.64518033 9.56128205,9.64518033 L9.56128205,9.64517778 Z" id="Fill-2"></path>
                <path d="M9.56128205,14.0964444 L18.4946154,14.0964444 C18.6999436,14.0964444 18.8672051,13.930732 18.8672051,13.7250967 C18.8672051,13.5204529 18.7009385,13.3537489 18.4946154,13.3537489 L9.56128205,13.3547481 C9.35595385,13.3547481 9.18869231,13.5204606 9.18869231,13.7260959 C9.18969487,13.9307397 9.35595897,14.096447 9.56128205,14.096447 L9.56128205,14.0964444 Z" id="Fill-3"></path>
                <path d="M3.34333333,22.8911326 L3.39942308,22.9370536 L3.43447949,22.9560207 L3.46352564,22.9709947 L3.50559231,22.9839721 L3.5326359,22.9919582 L3.58672308,22.9969494 L3.60675385,22.9999443 L3.62678718,22.9979479 L3.68087436,22.9929564 L3.70892051,22.9849703 L3.75098718,22.9719929 L3.7810359,22.9560207 L3.81508974,22.9380518 L3.87117949,22.892131 L6.84887179,19.9243633 C6.99410513,19.7796141 6.99410513,19.5450167 6.84887179,19.3992733 C6.70363846,19.2545241 6.46825641,19.2545241 6.32202564,19.3992733 L3.97928205,21.7342085 L3.97827949,0.371296667 C3.97827949,0.165653667 3.81201282,-5.11111111e-05 3.60668974,-5.11111111e-05 C3.40136154,-5.11111111e-05 3.2341,0.165661333 3.2341,0.371296667 L3.2341,21.7342085 L0.891357436,19.3992733 C0.746124103,19.2545241 0.510742051,19.2545241 0.364511282,19.3992733 C0.219277949,19.5440226 0.219277949,19.77862 0.364511282,19.9243633 L3.34333333,22.8911326 Z" id="Fill-4"></path>
            </g>
        </g>
    </g>
</svg>