<?xml version="1.0" encoding="UTF-8"?>
<svg width="25px" height="23px" viewBox="0 0 25 23" version="1.1" xmlns="http://www.w3.org/2000/svg" xmlns:xlink="http://www.w3.org/1999/xlink">
    <!-- Generator: Sketch 52.2 (67145) - http://www.bohemiancoding.com/sketch -->
    <title>Fill 1</title>
    <desc>Created with Sketch.</desc>
    <g id="Page-1" stroke="none" stroke-width="1" fill="none" fill-rule="evenodd" opacity="0.900000036">
        <g id="Home-V5" transform="translate(-928.000000, -1095.000000)" fill="#ECA0CA">
            <path d="M934.521022,1095.0001 C932.841998,1095.0001 931.165647,1095.68273 929.899097,1097.04937 C927.365614,1099.78126 927.368322,1104.14697 929.899097,1106.88165 L939.989421,1117.78199 C940.119621,1117.92097 940.302713,1118 940.493937,1118 C940.683814,1118 940.866899,1117.92097 940.998453,1117.78199 C944.366015,1114.15087 947.732396,1110.52359 951.099888,1106.89246 C953.633371,1104.16058 953.633371,1099.79242 951.099888,1097.06018 C948.566405,1094.32795 944.389208,1094.32829 941.85569,1097.06018 L940.499458,1098.52083 L939.143225,1097.04926 C937.876501,1095.68262 936.20015,1095 934.5213,1095 L934.521022,1095.0001 Z" id="Fill-1"></path>
        </g>
    </g>
</svg>