<svg width="22" height="20" xmlns="http://www.w3.org/2000/svg">
  <path d="M6.081 1a4.943 4.943 0 0 0-3.597 1.574c-1.98 2.094-1.977 5.449 0 7.544l8.301 8.792a.287.287 0 0 0 .42 0l8.31-8.784c1.98-2.093 1.98-5.45 0-7.543-1.979-2.094-5.215-2.094-7.194 0L10.999 3.98 9.68 2.574A4.942 4.942 0 0 0 6.08 1zm0 .554c1.146 0 2.292.47 3.178 1.407l1.535 1.626a.287.287 0 0 0 .42 0L12.74 2.97c1.772-1.873 4.584-1.873 6.356 0 1.772 1.872 1.772 4.897 0 6.77-2.7 2.854-5.396 5.718-8.096 8.572L2.903 9.731c-1.77-1.875-1.772-4.897 0-6.77.886-.937 2.032-1.407 3.178-1.407z" fill="#262626" stroke="#262626" stroke-width=".4" fill-rule="evenodd"/>
</svg>
