<?xml version="1.0" encoding="UTF-8"?>
<svg width="365px" height="57px" viewBox="0 0 365 57" version="1.1" xmlns="http://www.w3.org/2000/svg" xmlns:xlink="http://www.w3.org/1999/xlink">
    <!-- Generator: Sketch 52.2 (67145) - http://www.bohemiancoding.com/sketch -->
    <title>Group 13</title>
    <desc>Created with Sketch.</desc>
    <g id="design-1" stroke="none" stroke-width="1" fill="none" fill-rule="evenodd">
        <g id="single-product" transform="translate(-869.000000, -547.000000)">
            <g id="Group-13" transform="translate(865.000000, 547.000000)">
                <text id="No-animal-testing" font-family="Helvetica" font-size="11" font-weight="normal" letter-spacing="0.200000003" fill="#262626">
                    <tspan x="3.80659177" y="54">No animal testing</tspan>
                </text>
                <text id="Vegan" font-family="Helvetica" font-size="11" font-weight="normal" letter-spacing="0.200000003" fill="#262626">
                    <tspan x="171.896973" y="54">Vegan</tspan>
                </text>
                <text id="Australian-made" font-family="Helvetica" font-size="11" font-weight="normal" letter-spacing="0.200000003" fill="#262626">
                    <tspan x="286.756592" y="54">Australian made</tspan>
                </text>
                <path d="M47.9992246,0 C36.9719433,0 28,8.97142636 28,19.9992246 C28,31.0270228 36.9714264,39.9984492 47.9992246,39.9984492 C59.0270228,39.9984492 68,31.0270228 68,19.9992246 C68,8.97142636 59.0265059,0 47.9992246,0 Z M66.770209,19.9992246 C66.770209,24.9545225 64.8377467,29.463808 61.6897091,32.821825 L57.80664,28.938756 C58.0772251,28.5389369 58.2327091,28.0583621 58.1963634,27.5212138 C58.1398261,26.6771605 57.400747,26.2955065 56.8616343,26.018894 C56.6758578,25.9219685 56.4214322,25.7927345 56.3588312,25.7119632 C56.1528632,25.4494579 56.1205547,25.2010856 56.2578684,24.9305109 C56.4597992,24.5387715 56.9827679,24.2015275 57.4048463,24.2277879 C58.6568139,24.2843252 61.9886222,24.4297135 62.5499632,21.6269789 C62.8165058,20.298298 62.4449579,19.7571176 62.0168986,19.1311596 C61.8795849,18.929234 61.7362178,18.7192287 61.5888083,18.4506649 C61.0920637,17.5399785 60.4136058,16.2940591 59.2787242,15.5287869 C58.4689955,14.9835744 57.6370385,14.6867496 56.8313418,14.4000052 C56.589028,14.3131754 56.3467142,14.2263456 56.1084584,14.1354786 C56.6859794,12.1545794 56.4658732,10.216069 55.4299797,8.08577521 C55.0059318,7.21344551 54.1780121,6.17957327 53.1360757,5.89484485 C52.5747347,5.74137686 52.0254901,5.83022784 51.5428786,6.14927564 C49.5094586,7.5001848 50.8341074,10.7128394 51.8175009,12.223275 C52.5646286,13.3661691 53.3743574,14.0789723 54.1881182,14.5737319 C54.1537885,14.6020031 54.1194639,14.6282531 54.0851342,14.6565244 L53.9700332,14.7494126 C53.6206981,15.0321147 53.3985603,15.3875186 53.2026932,15.7025394 C53.136055,15.8095607 53.0694219,15.916582 52.9987464,16.01755 C52.9967252,16.0195712 52.9967252,16.0215873 52.9947092,16.0215873 C52.8574006,15.9004278 52.6574911,15.6560979 52.5141188,15.4824229 C52.3404593,15.2724176 52.1466083,15.034141 51.9305496,14.8160405 C49.3862417,12.2374081 46.6402254,11.3267217 43.0273588,11.861854 C42.4114812,11.952721 41.8036677,12.1183008 41.2100182,12.3444604 L35.1784076,6.30871425 C38.5364763,3.16269272 43.0456584,1.22821437 47.9989403,1.22821437 C58.3495522,1.22821437 66.7699247,9.64858683 66.7699247,19.9991987 L66.770209,19.9992246 Z M47.6213443,28.6336086 C47.6314401,28.7244756 47.6455783,28.8617894 47.643557,28.8840021 C47.6415358,28.8860233 47.488073,29.0435234 46.6581734,29.1121829 C40.8829631,29.588736 37.4381008,27.8097623 36.4104318,23.8254772 C36.3135062,23.4519081 36.2387935,23.1267863 36.1721552,22.8400936 C36.053017,22.3271947 35.9540702,21.9031468 35.8066659,21.5275411 C36.0732137,20.05143 36.2791765,19.102387 36.8526344,17.8726476 C37.654299,16.1542486 39.1909433,14.6680572 40.9396348,13.8058078 L55.9669678,28.8331408 C55.8902338,28.8593908 55.813505,28.8775663 55.7408082,28.8896832 C54.5635896,29.0714173 53.555926,29.1481513 52.4574368,28.9401621 C51.6800165,28.7927526 51.4114682,28.3383967 51.1024955,27.8133964 C50.8722987,27.4236731 50.6320009,27.0197961 50.185761,26.7795242 C49.7233461,26.5311519 49.2044095,26.4968221 48.7278461,26.6825986 C48.2351439,26.8764497 47.8514843,27.2802802 47.6737616,27.7952002 C47.5647191,28.1081896 47.5970276,28.3989816 47.6212616,28.6332054 L47.6213443,28.6336086 Z M42.1816255,13.3131728 C42.5228861,13.2101888 42.8661523,13.1294175 43.2114656,13.0789387 C46.4423164,12.5983484 48.7866217,13.3777898 51.0585559,15.6797477 C51.2362527,15.8594657 51.4038538,16.0634126 51.5674175,16.2633169 C52.0197366,16.8125615 52.4538596,17.3335298 53.0697373,17.3072694 C53.4291681,17.2931364 53.7441838,17.0952429 54.006684,16.7196681 C54.0914925,16.5985086 54.1682265,16.4753331 54.2449605,16.3521576 C54.4105403,16.085615 54.5539126,15.8574342 54.7437212,15.7039714 L54.8608382,15.6070458 C55.064785,15.441466 55.206136,15.326365 55.4262629,15.185014 C55.761465,15.3223226 56.0926453,15.4394448 56.4137143,15.5545406 C57.1810543,15.829163 57.9039378,16.0876052 58.5864485,16.5460241 C59.4728906,17.1416896 60.0443635,18.1917419 60.5027307,19.0337792 C60.6804275,19.3588855 60.8480285,19.603236 60.9954329,19.8212797 C61.3629434,20.360444 61.5022732,20.5603432 61.3387095,21.3821683 C61.0903372,22.6219879 59.9251993,23.1025834 57.4536244,22.9975937 C56.5550343,22.9471097 55.5797309,23.5468383 55.1597203,24.3666473 C54.8023055,25.0633221 54.885098,25.8306104 55.3879011,26.4687163 C55.6160819,26.7594929 55.96139,26.9371897 56.2925393,27.1068223 C56.5711989,27.2501893 56.9548379,27.4480828 56.9629538,27.5995244 C56.9730495,27.7529924 56.9427622,27.8943383 56.8902622,28.0255935 L42.1816255,13.3131728 Z M52.8496362,11.5483012 C52.0055829,10.2559609 51.0908644,7.92370023 52.2236783,7.17047261 C52.3468538,7.08768012 52.4720506,7.04729707 52.6073431,7.04729707 C52.6739813,7.04729707 52.7426356,7.05739283 52.8133111,7.07758436 C53.3302472,7.21893537 53.9521731,7.85298854 54.3237468,8.62032851 C55.1839801,10.3872162 55.3959757,11.9904935 54.9759651,13.607935 C54.2348854,13.1859032 53.5220822,12.5780948 52.8496517,11.5482547 L52.8496362,11.5483012 Z M29.230308,19.9991729 C29.230308,15.043875 31.1627703,10.5366572 34.3108078,7.17657246 L40.0255366,12.8913013 C38.1859678,13.8908489 36.6129312,15.4840461 35.7406015,17.3539074 C35.2640484,18.3756833 35.0157019,19.2257848 34.8036547,20.2374288 C34.7895217,20.227333 34.7733675,20.215216 34.7592292,20.2051203 C34.1009628,19.7265511 33.2164851,19.7528011 32.5582186,20.267716 C32.0109901,20.6958012 31.5808992,21.535812 32.0150222,22.610057 C32.2007987,23.0704506 32.6046395,23.431882 33.1215756,23.6055726 C33.6546401,23.7832694 34.2160328,23.7307693 34.6683519,23.4622055 C34.7753732,23.3975885 34.8864317,23.31278 34.9954742,23.2077747 C35.0600912,23.4803758 35.1307667,23.7852958 35.2196126,24.1326251 C36.2978896,28.3084868 39.5368563,30.4165006 44.8635728,30.4165006 C45.4673542,30.4165006 46.0993603,30.3882294 46.7576784,30.3357293 C47.7067215,30.2569793 48.2721462,30.0510113 48.5891831,29.6653149 C48.9243852,29.2614585 48.8759224,28.8030654 48.8436139,28.5001926 C48.8315021,28.3871128 48.8173639,28.247783 48.8355394,28.197299 C48.8940979,28.0276819 49.0213107,27.888347 49.1747787,27.8277724 C49.3161297,27.7732511 49.4594968,27.7853681 49.604885,27.8621021 C49.7502733,27.9388361 49.8855659,28.1710542 50.0450872,28.4376071 C50.4085553,29.0514687 50.9073366,29.893506 52.2279533,30.1459259 C53.5748304,30.4023727 54.8025537,30.2771811 55.9272516,30.1035216 C56.2604324,30.0530376 56.5916179,29.9339045 56.8944908,29.7622611 L60.8200003,33.6877706 C57.4619315,36.8337921 52.9527495,38.7662544 47.9994676,38.7662544 C37.6504064,38.7702917 29.230034,30.3500174 29.230034,19.9988886 L29.230308,19.9991729 Z M34.5227,21.6953437 C34.4176947,22.0749712 34.1572106,22.3374817 34.0360511,22.410163 C33.8967213,22.4949715 33.7008491,22.5050673 33.5130669,22.4424715 C33.3414286,22.3859342 33.2041148,22.2728544 33.153636,22.1516949 C33.000168,21.7720725 33.0587317,21.4409077 33.3131573,21.2410085 C33.4201786,21.1562 33.5635508,21.0996575 33.7129764,21.0996575 C33.8220189,21.0996575 33.9330774,21.1299448 34.0340402,21.2046576 C34.2581786,21.3621629 34.4076093,21.5115884 34.5227051,21.6953437 L34.5227,21.6953437 Z" id="Fill-1" fill="#262626" opacity="0.750134"></path>
                <path d="M207.995121,14.4232935 C207.993223,14.3663863 207.993223,14.3227603 207.993223,14.2867193 C207.993223,10.3374551 205.790943,6.80172538 202.247638,5.05454697 C202.23626,5.04885577 202.156588,5.01471344 202.126238,5.00522973 C199.349206,4.14028415 196.911897,3.99042888 194.882101,4.56325866 C192.829676,5.14369289 191.24391,6.62704639 190.74695,8.43477876 C190.363785,9.82708281 190.709015,11.2212807 191.693476,12.258856 C192.057674,12.6420213 192.512921,12.9360212 192.962487,13.1560938 C190.202547,17.0143086 188.554187,20.2997129 187.581099,22.9365053 C186.659242,21.6257815 185.450931,20.3226331 183.958108,19.0308477 C184.233155,18.934107 184.506299,18.8051227 184.750991,18.6344014 C185.68426,17.9837983 186.173645,16.9537983 186.09964,15.8099743 C186.002899,14.3399262 185.022197,12.9495159 183.538892,12.1812528 C182.09157,11.4319764 180.226974,11.1645095 178.002114,11.386476 C177.802941,11.4054434 177.626533,11.5287413 177.539281,11.7089416 C176.564299,13.7214988 176.173539,15.5633687 176.378413,17.1796787 C176.588963,18.8356619 177.556374,20.2355413 178.903129,20.83302 C179.333718,21.0246026 179.779487,21.1175508 180.219535,21.1175508 C180.851199,21.1175508 181.471453,20.9240694 182.019643,20.5390104 C182.368666,20.2943131 182.658883,19.9661514 182.886531,19.6341972 C184.73787,21.1915072 186.152949,22.756441 187.112731,24.3175386 C186.346411,26.792967 186.209812,28.5665133 186.2136,29.5605306 C186.2136,30.8731482 186.953358,31.8254041 187.973889,31.8254041 C189.163214,31.8254041 189.749329,30.689204 189.792985,29.6345356 C189.86696,27.807865 189.387055,25.9811943 188.364649,24.1676833 C189.239113,21.538612 190.859016,18.1074314 193.810621,13.9550905 C194.009793,14.4672497 194.305687,15.007865 194.71354,15.438444 C195.485542,16.2541014 196.498498,16.6865742 197.57968,16.6865742 C197.875593,16.6865742 198.179101,16.6543257 198.482599,16.5879397 C200.314951,16.1877009 201.881779,14.6853702 202.570356,12.6652377 C203.145108,10.9789046 203.217171,8.97392267 202.796081,6.69384999 C205.318903,8.37634686 206.84397,11.1837295 206.84397,14.2701361 C206.84397,14.3061772 206.84397,14.3649781 206.845868,14.4427514 C206.927434,18.0334992 205.685,21.1138845 204.626544,23.0659849 C201.640899,28.5745985 196.048956,33.0148985 187.998728,36.2737408 C179.948499,33.0168409 174.356362,28.5760553 171.376738,23.0713265 C170.318282,21.1194689 169.075834,18.0390836 169.157414,14.4480929 C169.159313,14.3703197 169.161206,14.3115187 169.159313,14.2849614 C169.159313,9.25077615 173.254644,5.15330771 178.289024,5.15330771 C178.304199,5.15330771 179.776165,5.16279142 180.751147,5.65789167 C181.035678,5.80394957 181.382812,5.69014018 181.528879,5.4056094 C181.673043,5.12107863 181.561123,4.77394468 181.276597,4.6297709 C180.051241,4.00568149 178.363014,4 178.290952,4 C172.619177,4 168.006003,8.61317258 168.006003,14.2941732 C168.006003,14.3207305 168.006003,14.3643566 168.004106,14.4231575 C167.916849,18.2662216 169.237086,21.5478384 170.361923,23.6227948 C173.501211,29.4179108 179.364408,34.0650751 187.786604,37.4322055 C187.854889,37.4587628 187.926971,37.4739377 188.000952,37.4739377 C188.073034,37.4739377 188.147009,37.4606567 188.215299,37.4322055 C196.637495,34.0633756 202.498652,29.4179108 205.63998,23.6227948 C206.76103,21.5457503 208.083116,18.2661731 207.995903,14.4231575 L207.995121,14.4232935 Z M182.262359,17.9874792 C182.203558,18.0292114 182.084053,18.0216215 181.95317,17.9704056 C181.736928,17.8869411 181.518789,17.7029484 181.353749,17.4639278 C181.186825,17.2249217 181.090084,16.95745 181.084393,16.726063 C181.082494,16.5837976 181.116641,16.4699882 181.175442,16.4301498 C181.202,16.4111824 181.238041,16.4035974 181.281667,16.4035974 C181.338574,16.4035974 181.410651,16.4187723 181.484632,16.4472234 C181.698979,16.5306878 181.917114,16.7146806 182.084053,16.9537012 C182.250977,17.1927072 182.347717,17.460179 182.353409,17.691566 C182.357201,17.8338314 182.32116,17.9476408 182.262359,17.9874792 Z M181.351865,19.5960196 C180.75055,20.0152259 180.044928,20.0816167 179.365869,19.7800172 C178.402251,19.3513272 177.675749,18.275783 177.518318,17.0371705 C177.351394,15.7207653 177.660584,14.1994381 178.434494,12.5093659 C180.289621,12.3652018 181.824205,12.6004153 183.002118,13.2093055 C184.109862,13.7840583 184.872444,14.834939 184.940719,15.887665 C184.990036,16.6293175 184.686538,17.2686061 184.083348,17.6896673 C183.920217,17.8034816 183.707768,17.9002174 183.48014,17.9722994 C183.495314,17.8736649 183.508591,17.7750256 183.506697,17.6706999 C183.499107,17.2097614 183.32839,16.7222802 183.030583,16.293595 C182.730878,15.8667989 182.332538,15.5386372 181.901959,15.3717375 C181.401211,15.1763623 180.894733,15.2180897 180.513442,15.483653 C180.132171,15.7492164 179.917809,16.2120487 179.92922,16.7488763 C179.936805,17.2098148 180.107527,17.6991899 180.405334,18.1259812 C180.703141,18.5527725 181.105273,18.880939 181.533959,19.0478387 C181.630699,19.0857736 181.72744,19.1123309 181.822282,19.1312983 C181.676224,19.3190884 181.513092,19.4841137 181.35186,19.5960293 L181.351865,19.5960196 Z M188.633879,29.5925218 C188.633879,29.6039042 188.573179,30.6737523 187.96997,30.6737523 C187.577321,30.6737523 187.364868,30.1008934 187.364868,29.5640658 L187.364868,29.5090573 C187.361075,28.759781 187.448332,27.5116507 187.882709,25.7969102 C188.432793,27.067815 188.685061,28.3349321 188.633879,29.5925315 L188.633879,29.5925218 Z M194.715011,11.7618814 C194.788987,11.4318259 195.007127,11.0770923 195.308751,10.7887933 C195.612249,10.50047 195.976447,10.3031962 196.310295,10.2481781 C196.353921,10.2405882 196.420312,10.2330031 196.494293,10.2330031 C196.623277,10.2330031 196.778823,10.2595605 196.877458,10.3638861 C197.033,10.5270176 196.987475,10.8191334 196.960922,10.9367451 C196.886947,11.2668006 196.668807,11.6215341 196.367183,11.9098331 C196.063685,12.1981564 195.697593,12.3954302 195.363745,12.4523422 C195.246138,12.4732083 194.952124,12.5016594 194.796568,12.3385279 C194.64292,12.1697053 194.688444,11.8794881 194.715002,11.7618814 L194.715011,11.7618814 Z M201.47161,12.298709 C200.921525,13.9129309 199.648727,15.1553797 198.229861,15.4664532 C197.205542,15.6902843 196.255228,15.3981637 195.54582,14.6507957 C195.293537,14.3852324 195.073499,14.0039804 194.908473,13.5980212 C194.999523,13.6112974 195.090572,13.6226798 195.185414,13.6226798 C195.306814,13.6226798 195.432005,13.6112974 195.559096,13.5904313 C196.120543,13.4955893 196.691508,13.1958836 197.163849,12.7482117 C197.636189,12.3005397 197.964307,11.7485614 198.091436,11.1909017 C198.233702,10.5611308 198.097127,9.96933363 197.719653,9.57099831 C197.340281,9.17075946 196.756034,9.00382089 196.120582,9.11195851 C195.559135,9.20680048 194.98817,9.50650616 194.515829,9.95417814 C194.043489,10.4018501 193.715371,10.9538284 193.590184,11.5095943 C193.538968,11.7353192 193.535176,11.9534592 193.556042,12.1621397 C193.155803,11.9743495 192.784039,11.7334497 192.531723,11.4659876 C191.822314,10.7167113 191.583303,9.74930472 191.860239,8.74207919 C192.245303,7.34219983 193.556042,6.13957002 195.196826,5.67674741 C195.902447,5.4775749 196.668768,5.37894041 197.493943,5.37894041 C198.70036,5.37894041 200.031965,5.59138915 201.473557,6.01628662 C202.053991,8.47462201 202.053991,10.5877464 201.471658,12.2989421 L201.47161,12.298709 Z" id="Fill-1" fill="#000000" opacity="0.750134"></path>
                <g id="Group-12" opacity="0.750134" transform="translate(308.000000, 0.000000)" stroke="#262626">
                    <circle id="Oval" stroke-width="1.3" cx="20" cy="20" r="19.35"></circle>
                    <path d="M15.6420487,12.9851964 C14.1996641,13.5874683 12.9472042,14.2577399 11.8677087,14.4554135 C10.9364685,14.362752 9.89868211,14.4739434 9.09256921,14.1589031 C9.09720268,13.6013845 9.12191188,13.252372 9.438498,12.6145979 C9.56976512,12.3211752 9.19758529,11.9567007 8.90881185,12.0957048 C8.15982662,12.4740639 7.41855066,12.8385226 6.92282483,13.2940811 C5.70436483,13.3743841 4.82716851,14.2144889 4.3947773,15.3819887 C4.04112739,15.5595865 3.67666869,15.7356386 3.39561638,15.9873442 C3.2365524,16.1294241 3.0867514,16.307018 3.0249784,16.5432815 C2.9632054,16.7795449 3.0188011,17.0560072 3.16087899,17.2722226 C3.30450072,17.48843 3.5145289,17.6444064 3.73998354,17.7169882 C3.9669998,17.7895699 4.20174904,17.7849404 4.41792488,17.7416974 C4.81635577,17.6613944 5.19007745,17.4606292 5.57771536,17.2598482 C6.91663765,17.2644817 8.12893024,17.3725854 9.16671658,17.8281598 C10.2215028,18.2914671 11.1311176,19.1068707 11.8924377,20.6310922 C12.383538,21.6858785 12.8406384,22.802418 13.4460335,23.6316982 C14.0653053,24.4501855 14.976462,25.1065409 15.937037,24.879493 C16.1640533,24.8223535 16.298408,24.5335642 16.1964836,24.3235558 C16.0096188,23.9451967 15.8304791,23.4679849 15.7393832,23.0139682 C15.6698891,22.663406 15.7223951,22.3869872 15.7888016,22.1244371 C18.1670521,22.2093735 20.6009674,23.1375142 22.2764488,24.9644531 C24.0323437,26.8809776 24.9898351,29.7394563 24.2130174,33.6589282 C24.1605113,33.8921198 24.3689937,34.1469448 24.6083646,34.1407774 L25.3975171,34.1407774 C25.5550392,34.1407774 25.7079279,34.0403948 25.768155,33.8936854 C26.7750648,31.4521003 27.1920374,29.5820291 27.0885355,27.8907338 C26.9881529,26.2691778 26.3765944,24.839128 25.4361029,23.2841485 C25.876243,22.7034626 26.0121238,22.0934814 26.1017095,21.4309586 C30.1417623,23.2208139 32.0117544,23.2548137 36.6108281,22.4810798 C36.8162229,22.4764463 37,22.2911273 37,22.0857326 C37,21.8803379 36.8162268,21.6934731 36.6108281,21.6903854 C33.815605,21.287329 31.8449179,21.0881135 30.3331103,20.4672603 C28.1926611,19.509769 27.2985044,18.0503844 26.5464355,16.67596 C25.9426218,15.4590418 25.3295174,14.4057974 24.4245281,13.6012264 C23.517997,12.7935321 22.3257881,12.2530134 20.6748974,12.0445468 C18.9761301,11.8376063 17.0858961,12.3858422 15.6421278,12.9834964 L15.6420487,12.9851964 Z M20.5759815,12.8369412 C22.1094937,13.0299813 23.1086546,13.4963803 23.8931815,14.1959471 C24.6777085,14.8955139 25.2521874,15.8468379 25.8421245,17.0359631 C26.8613691,19.023492 28.4072556,20.5091671 30.024107,21.1977828 C31.0758095,21.6286322 32.3591065,21.8710986 33.7860726,22.087314 C30.995475,22.3930913 29.3490912,22.0703259 25.96571,20.5182601 C25.727885,20.4117022 25.4128565,20.6155511 25.4113147,20.8765435 C25.3634421,21.6842378 25.1426012,22.3297607 24.720999,23.0138694 C24.5959072,23.1405031 24.5742896,23.3582524 24.6715806,23.5080534 C25.6491555,25.0879002 26.2050927,26.4175714 26.299304,27.941872 C26.3904196,29.4089658 26.0182359,31.1046494 25.1148043,33.3518028 L25.0406767,33.3518028 C25.6831159,29.4740004 24.7055567,26.4518085 22.8570161,24.4347472 C21.6740583,23.1437014 20.1652553,22.2480029 18.5528714,21.7553607 C17.9768505,21.108296 17.7143005,20.4998172 17.7143005,19.8651268 C17.7143005,19.1485601 18.0540539,18.3424076 18.8122982,17.3957488 C18.9497446,17.2382267 18.8956927,16.9880668 18.752071,16.845979 C18.5188794,16.6730146 18.3907,16.7857518 18.1961338,16.9015727 C17.3745628,17.930108 16.9251717,18.901476 16.9251717,19.8651347 C16.9251717,20.5878689 17.0471719,21.011009 17.5181925,21.5330254 C16.7923746,21.3801367 16.1746446,21.298288 15.4441616,21.298288 C15.3020818,21.298288 15.1646393,21.3832244 15.0982328,21.5083162 C14.8403321,22.0272094 14.8526867,22.6233138 14.9623323,23.1762069 C15.0256511,23.492793 15.1600058,23.7537696 15.2711972,24.0410288 C14.7492204,24.0085985 14.3384151,23.5144264 14.0743627,23.1638325 C13.4581746,22.2356759 12.9825324,21.2148895 12.6196037,20.3114817 C11.7918258,18.6389654 10.7139117,17.6505975 9.48616105,17.1132021 C8.25841039,16.5742253 6.90248817,16.4707629 5.48959643,16.4707629 C5.42936924,16.4738506 5.3691381,16.4908386 5.31663204,16.5201813 C4.90120122,16.734843 4.59389786,16.9247796 4.29892933,17.0205327 C4.07191308,17.0931145 3.92365788,17.0745846 3.824829,16.9402298 C3.71672526,16.7549108 3.8433609,16.6545282 3.91131119,16.5819464 C4.09354252,16.418249 4.4749972,16.2143961 4.87342808,16.0136348 C4.96454375,15.9688499 5.03712554,15.8870012 5.07110167,15.791252 C5.43710618,14.6855055 6.07646955,14.0492733 7.09417225,14.0492733 C7.19609671,14.0446398 7.2949335,13.9998549 7.36597344,13.9257273 C7.52812904,13.7620299 8.00378704,13.5396471 8.36513436,13.3327066 C8.3002737,13.6879023 8.29100676,14.0368989 8.29100676,14.4569949 C8.28946096,14.5959831 8.36822202,14.7334295 8.48868035,14.8029236 C9.02765716,15.1395855 10.8839308,15.2492311 11.9294264,15.2476892 C13.2266395,15.0299399 14.5300597,14.3087397 15.9508979,13.7157189 C17.607956,13.054738 18.9577108,12.7227254 20.5760645,12.8385226 L20.5759815,12.8369412 Z M6.09639109,15.0731039 C5.89253823,15.1904746 5.79679305,15.3943235 5.8740083,15.5302043 C5.95276937,15.6661049 6.17669401,15.6846348 6.37898525,15.5672681 C6.58283417,15.4498974 6.6785833,15.2460485 6.60136804,15.1101677 C6.44847938,14.9619125 6.28632378,14.9850759 6.09639109,15.0731039 Z" id="Fill-1" stroke-width="0.3" fill="#000000"></path>
                </g>
            </g>
        </g>
    </g>
</svg>