<svg width="20" height="20" xmlns="http://www.w3.org/2000/svg">
  <path d="M11.521 1C15.651 1 19 4.432 19 8.651c0 4.222-3.35 7.652-7.479 7.652a7.393 7.393 0 0 1-5.174-2.117l-4.588 4.676a.433.433 0 0 1-.628.008.456.456 0 0 1 .001-.641l4.623-4.704a7.703 7.703 0 0 1-1.727-4.874c0-4.22 3.362-7.65 7.493-7.65V1zm0 .9c-3.655 0-6.612 3.019-6.612 6.751 0 3.736 2.957 6.752 6.612 6.752 3.653 0 6.598-3.016 6.598-6.752 0-3.732-2.945-6.75-6.598-6.75z" fill="currentColor" stroke="currentColor" stroke-width=".2" fill-rule="evenodd"/>
</svg>
