<svg width="18" height="22" xmlns="http://www.w3.org/2000/svg">
  <path d="M9 1C6.723 1 4.87 2.902 4.87 5.241c0 2.34 1.853 4.241 4.13 4.241s4.129-1.902 4.129-4.24c0-2.34-1.852-4.242-4.13-4.242zm0 .53c1.998 0 3.613 1.659 3.613 3.711 0 2.053-1.615 3.711-3.613 3.711s-3.613-1.658-3.613-3.71C5.387 3.188 7.002 1.53 9 1.53zm0 9.543c-2.192 0-4.171.614-5.621 1.615C1.929 13.69 1 15.095 1 16.64v4.772c0 .139.123.265.258.265h15.484a.272.272 0 0 0 .258-.265v-4.772c0-1.544-.93-2.95-2.379-3.95-1.45-1.002-3.43-1.616-5.62-1.616H9zm0 .53c2.097 0 3.989.592 5.339 1.524 1.35.932 2.145 2.186 2.145 3.513v4.506H1.516V16.64c0-1.327.796-2.58 2.145-3.513 1.35-.932 3.242-1.524 5.34-1.524H9z" fill="currentColor" stroke="currentColor" stroke-width=".4" fill-rule="evenodd"/>
</svg>
